<svg width="19" height="21" viewBox="0 0 19 21" fill="none" xmlns="http://www.w3.org/2000/svg">
<path opacity="0.4" d="M13.5164 0.916748H5.48458C2.57125 0.916748 0.875 2.62258 0.875 5.5455V15.4451C0.875 18.4159 2.57125 20.0834 5.48458 20.0834H13.5164C16.4767 20.0834 18.125 18.4159 18.125 15.4451V5.5455C18.125 2.62258 16.4767 0.916748 13.5164 0.916748Z" fill="#9796A1"/>
<path fill-rule="evenodd" clip-rule="evenodd" d="M5.74302 5.3728V5.38239C5.32998 5.38239 4.99552 5.7178 4.99552 6.12989C4.99552 6.54197 5.32998 6.87739 5.74302 6.87739H8.60748C9.02052 6.87739 9.35594 6.54197 9.35594 6.11934C9.35594 5.70822 9.02052 5.3728 8.60748 5.3728H5.74302ZM13.2564 11.2091H5.74302C5.32998 11.2091 4.99552 10.8737 4.99552 10.4616C4.99552 10.0495 5.32998 9.71315 5.74302 9.71315H13.2564C13.6684 9.71315 14.0039 10.0495 14.0039 10.4616C14.0039 10.8737 13.6684 11.2091 13.2564 11.2091ZM13.2565 15.5886H5.74317C5.45567 15.6269 5.17776 15.4832 5.02442 15.2436C4.87109 14.9944 4.87109 14.6782 5.02442 14.4386C5.17776 14.1894 5.45567 14.0552 5.74317 14.084H13.2565C13.6389 14.1223 13.9273 14.4482 13.9273 14.8411C13.9273 15.2235 13.6389 15.5502 13.2565 15.5886Z" fill="#9796A1"/>
</svg>
